<svg xmlns="http://www.w3.org/2000/svg" width="512" height="512" viewBox="0 0 100 100"><polygon points="50,5 89,27.5 89,72.5 50,95 11,72.5 11,27.5" fill="#1B2126" stroke="#1B2126" stroke-width="9" stroke-linejoin="round"/><polygon points="50,5 89,27.5 89,72.5 50,95 11,72.5 11,27.5" fill="none" stroke="#D9569E" stroke-opacity="0.75" stroke-width="3.5" stroke-linejoin="round"/><text x="50" y="52" text-anchor="middle" font-family='"Cascadia Code","JetBrains Mono",Consolas,ui-monospace,monospace' font-weight="700" font-size="30" fill="#D9569E">ki</text><g transform="translate(0 6)">
      <path d="M50 78 Q39 70 44 60 Q46 65 49 66 Q46.5 56 55 50 Q52 62 58 66 Q61 72 50 78 Z" fill="#D9569E" fill-opacity="0.55"/>
      <path d="M50 74 Q46 70 48.5 65 Q50 69 52.5 67 Q53 71 50 74 Z" fill="#1B2126" fill-opacity="0.34"/></g></svg>